<svg width="18" height="18" viewBox="0 0 18 18" fill="none" xmlns="http://www.w3.org/2000/svg">
<path d="M3 1.5H15C15.8279 1.5 16.5 2.17213 16.5 3V6C16.5 6.82787 15.8279 7.5 15 7.5H3C2.17213 7.5 1.5 6.82787 1.5 6V3C1.5 2.17213 2.17213 1.5 3 1.5" stroke="#BFD3FF" stroke-width="1.5" stroke-linecap="round" stroke-linejoin="round"/>
<path d="M3 10.5H15C15.8279 10.5 16.5 11.1721 16.5 12V15C16.5 15.8279 15.8279 16.5 15 16.5H3C2.17213 16.5 1.5 15.8279 1.5 15V12C1.5 11.1721 2.17213 10.5 3 10.5" stroke="#BFD3FF" stroke-width="1.5" stroke-linecap="round" stroke-linejoin="round"/>
<path d="M4.5 4.5H4.5075M4.5 13.5H4.5075" stroke="#BFD3FF" stroke-width="1.5" stroke-linecap="round" stroke-linejoin="round"/>
</svg>
