<svg width="18" height="18" viewBox="0 0 18 18" fill="none" xmlns="http://www.w3.org/2000/svg">
<path d="M12 7.5C12 9.15575 10.6557 10.5 9 10.5C7.34425 10.5 6 9.15575 6 7.5M2.32725 4.5255H15.6728" stroke="#BFD3FF" stroke-width="1.5" stroke-linecap="round" stroke-linejoin="round"/>
<path d="M2.55 4.10025C2.35527 4.35989 2.25 4.67569 2.25 5.00025V15C2.25 15.8279 2.92213 16.5 3.75 16.5H14.25C15.0779 16.5 15.75 15.8279 15.75 15V5.00025C15.75 4.67569 15.6447 4.35989 15.45 4.10025L13.95 2.1C13.6667 1.72229 13.2221 1.5 12.75 1.5H5.25C4.77786 1.5 4.33328 1.72229 4.05 2.1" stroke="#BFD3FF" stroke-width="1.5" stroke-linecap="round" stroke-linejoin="round"/>
</svg>
