<svg width="17" height="12" viewBox="0 0 17 12" fill="none" xmlns="http://www.w3.org/2000/svg">
<path d="M3.75 5.25H6.75M5.25 3.75V6.75M10.5 6H10.5075M12.75 4.5H12.7575M12.24 0.75H4.26C2.72247 0.750358 1.4341 1.91307 1.2765 3.4425L1.26375 3.5565C1.203 4.062 0.75 7.842 0.75 9C0.75 10.2418 1.75819 11.25 3 11.25C3.75 11.25 4.125 10.875 4.5 10.5L5.5605 9.4395C5.84174 9.15818 6.22321 9.00008 6.621 9H9.879C10.2768 9.00008 10.6583 9.15818 10.9395 9.4395L12 10.5C12.375 10.875 12.75 11.25 13.5 11.25C14.7418 11.25 15.75 10.2418 15.75 9C15.75 7.84125 15.297 4.062 15.2362 3.5565C15.2312 3.519 15.227 3.48125 15.2235 3.44325C15.0663 1.91352 13.7778 0.750398 12.24 0.75" stroke="#BFD3FF" stroke-width="1.5" stroke-linecap="round" stroke-linejoin="round"/>
</svg>
