<svg width="14" height="17" viewBox="0 0 14 17" fill="none" xmlns="http://www.w3.org/2000/svg">
<path d="M9.28166 16.2273V13.1364C9.38916 12.1684 9.1116 11.1969 8.50893 10.4318C10.8271 10.4318 13.1453 8.88636 13.1453 6.18182C13.2071 5.21591 12.9367 4.26545 12.3726 3.47727C12.5889 2.58864 12.5889 1.66136 12.3726 0.772727C12.3726 0.772727 11.5998 0.772727 10.0544 1.93182C8.01438 1.54545 5.91257 1.54545 3.87257 1.93182C2.32711 0.772727 1.55438 0.772727 1.55438 0.772727C1.32257 1.66136 1.32257 2.58864 1.55438 3.47727C0.991565 4.26219 0.718464 5.21804 0.781657 6.18182C0.781657 8.88636 3.09984 10.4318 5.41802 10.4318C5.11666 10.8105 4.89257 11.2432 4.7612 11.7068C4.62984 12.1705 4.5912 12.6573 4.64529 13.1364V16.2273" stroke="#BFD3FF" stroke-width="1.5" stroke-linecap="round" stroke-linejoin="round"/>
</svg>
