<svg width="18" height="18" viewBox="0 0 18 18" fill="none" xmlns="http://www.w3.org/2000/svg">
<path d="M11.25 16.5V13.5C11.3543 12.5605 11.0849 11.6176 10.5 10.875C12.75 10.875 15 9.375 15 6.75C15.06 5.8125 14.7975 4.89 14.25 4.125C14.46 3.2625 14.46 2.3625 14.25 1.5C14.25 1.5 13.5 1.5 12 2.625C10.02 2.25 7.98 2.25 6 2.625C4.5 1.5 3.75 1.5 3.75 1.5C3.525 2.3625 3.525 3.2625 3.75 4.125C3.20373 4.88683 2.93867 5.81457 3 6.75C3 9.375 5.25 10.875 7.5 10.875C7.2075 11.2425 6.99 11.6625 6.8625 12.1125C6.735 12.5625 6.6975 13.035 6.75 13.5V16.5" stroke="#BFD3FF" stroke-width="1.5" stroke-linecap="round" stroke-linejoin="round"/>
<path d="M6.75 13.5C3.3675 15 3 12 1.5 12" stroke="#BFD3FF" stroke-width="1.5" stroke-linecap="round" stroke-linejoin="round"/>
</svg>
