<svg width="13" height="13" viewBox="0 0 13 13" fill="none" xmlns="http://www.w3.org/2000/svg">
<path d="M6.24271 1.24312C6.29113 1.1453 6.39084 1.08339 6.5 1.08339C6.60916 1.08339 6.70887 1.1453 6.75729 1.24312L8.00854 3.77758C8.17564 4.11639 8.49869 4.35133 8.8725 4.40592L11.6707 4.81542C11.7789 4.83109 11.8688 4.90681 11.9026 5.01075C11.9364 5.11468 11.9083 5.22879 11.83 5.30508L9.80633 7.27567C9.53517 7.53952 9.41138 7.92002 9.47538 8.29292L9.95312 11.0771C9.97222 11.1852 9.92797 11.2948 9.83913 11.3593C9.75029 11.4238 9.63242 11.432 9.5355 11.3804L7.03408 10.0653C6.69955 9.88938 6.29991 9.88938 5.96537 10.0653L3.4645 11.3804C3.36762 11.4317 3.24998 11.4233 3.16133 11.3589C3.07267 11.2944 3.02847 11.1851 3.04742 11.0771L3.52463 8.29346C3.58881 7.92038 3.465 7.53964 3.19367 7.27567L1.17 5.30562C1.09109 5.22941 1.06251 5.11488 1.09638 5.01052C1.13024 4.90616 1.22062 4.83023 1.32925 4.81488L4.12696 4.40592C4.50117 4.35167 4.82469 4.11667 4.992 3.77758" stroke="#9CA3AF" stroke-width="1.08333" stroke-linecap="round" stroke-linejoin="round"/>
</svg>
